<?xml version="1.0" encoding="utf-8"?>
<!-- Generated by IcoMoon.io -->
<!DOCTYPE svg PUBLIC "-//W3C//DTD SVG 1.1//EN" "http://www.w3.org/Graphics/SVG/1.1/DTD/svg11.dtd">

<svg version="1.1" xmlns="http://www.w3.org/2000/svg" xmlns:xlink="http://www.w3.org/1999/xlink" width="68" height="12" viewBox="0 0 68 12">
<defs>
<g id="icon-minus">
	<path class="path1" d="M6 0c-3.314 0-6 2.686-6 6s2.686 6 6 6 6-2.687 6-6-2.687-6-6-6zM6 10.5c-2.485 0-4.5-2.015-4.5-4.5s2.015-4.5 4.5-4.5 4.5 2.015 4.5 4.5-2.015 4.5-4.5 4.5zM3 6.75h6v-1.5h-6v1.5z"></path>
</g>
<g id="icon-plus">
	<path class="path1" d="M6 0c-3.314 0-6 2.686-6 6s2.686 6 6 6 6-2.687 6-6-2.687-6-6-6zM6 10.5c-2.485 0-4.5-2.015-4.5-4.5s2.015-4.5 4.5-4.5 4.5 2.015 4.5 4.5-2.015 4.5-4.5 4.5zM9 6.75h-2.25v2.25h-1.5v-2.25h-2.25v-1.5h2.25v-2.25h1.5v2.25h2.25z"></path>
</g>
<g id="icon-cancel">
	<path class="path1" d="M10.242 1.757c-2.342-2.343-6.142-2.343-8.485 0s-2.344 6.142 0 8.485c2.343 2.344 6.142 2.344 8.485 0 2.344-2.342 2.344-6.142 0-8.485zM9.181 9.181c-1.757 1.758-4.606 1.758-6.364 0s-1.757-4.606 0-6.364c1.757-1.757 4.606-1.757 6.364 0s1.758 4.606 0 6.364zM7.060 6l1.591 1.591-1.061 1.061-1.591-1.591-1.591 1.591-1.061-1.061 1.591-1.591-1.591-1.591 1.061-1.061 1.591 1.591 1.591-1.591 1.061 1.061z"></path>
</g>
</defs>

<g fill="#000000">
	<use xlink:href="#icon-minus" transform="translate(0 0)"></use>
	<use xlink:href="#icon-plus" transform="translate(28 0)"></use>
	<use xlink:href="#icon-cancel" transform="translate(56 0)"></use>
</g>

</svg>
